<svg width="790" height="790" viewBox="0 0 790 790" fill="none" xmlns="http://www.w3.org/2000/svg">
<path d="M720.202 323.82L720.202 391.91C720.202 393.467 718.94 394.731 717.383 394.732L503.471 394.998L503.196 106.813C623.045 106.813 720.202 203.971 720.202 323.82Z" fill="#F28142"/>
<path d="M69.7979 465.541L69.7979 396.94C69.7979 395.378 71.0627 394.112 72.6242 394.11L286.529 393.845L286.285 682.582C166.633 682.276 69.7979 585.193 69.7979 465.541Z" fill="#EC533E"/>
<path d="M70.0635 176.57L70.0635 73.2664C70.0635 71.5166 71.4807 70.0975 73.2304 70.095L276.168 69.8123C281.177 69.8053 283.682 69.8019 285.24 71.356C286.797 72.9102 286.799 75.4147 286.804 80.4237L287.07 393.576C167.221 393.576 70.0635 296.419 70.0635 176.57Z" fill="#F28142"/>
<path d="M720.202 612.004L720.202 716.718C720.202 718.475 718.779 719.901 717.021 719.903L514.097 720.187C509.088 720.194 506.584 720.197 505.026 718.643C503.468 717.089 503.466 714.585 503.462 709.575L503.196 394.997C623.045 394.997 720.202 492.154 720.202 612.004Z" fill="#EC533E"/>
<path d="M286.713 324.344L286.713 395.253L503.444 395.522L503.719 107.338C383.87 107.338 286.713 204.495 286.713 324.344Z" fill="#EC533E"/>
<path d="M503.198 466.176L503.198 395.267L286.467 394.998L286.192 683.183C406.041 683.183 503.198 586.025 503.198 466.176Z" fill="#F28142"/>
</svg>
